REM DIRINDEX 1\2\6,1\2\7,1\2\8,1\2\9,1\3\10,1\3\11,1\4\12,1\4\13,1\4\14,1\5\15,1\5\16,1\5\17
REM DIRNAME cjc029,folder01,folder02,folder03,folder04,folder05,folder06,folder07,folder08,folder09,folder10,folder11,folder12,folder13,folder14,folder15,folder16
TITLE ""
FILE "1400_2_sec06_0550_0567.mp3" MP3
  TRACK 01 AUDIO
    TITLE "0:"
    INDEX 01 00:00:00
  TRACK 02 AUDIO
    TITLE "13:cjc029_2688"
    INDEX 01 00:00:17
  TRACK 03 AUDIO
    TITLE "0:"
    INDEX 01 00:01:50
  TRACK 04 AUDIO
    TITLE "14:cjc029_2689"
    INDEX 01 00:01:56
  TRACK 05 AUDIO
    TITLE "0:"
    INDEX 01 00:04:09
  TRACK 06 AUDIO
    TITLE "13:cjc029_2690"
    INDEX 01 00:04:68
  TRACK 07 AUDIO
    TITLE "0:"
    INDEX 01 00:06:47
  TRACK 08 AUDIO
    TITLE "14:cjc029_2691"
    INDEX 01 00:06:51
  TRACK 09 AUDIO
    TITLE "0:"
    INDEX 01 00:07:68
  TRACK 10 AUDIO
    TITLE "13:cjc029_2692"
    INDEX 01 00:08:48
  TRACK 11 AUDIO
    TITLE "0:"
    INDEX 01 00:10:14
  TRACK 12 AUDIO
    TITLE "14:cjc029_2693"
    INDEX 01 00:10:18
  TRACK 13 AUDIO
    TITLE "0:"
    INDEX 01 00:11:44
  TRACK 14 AUDIO
    TITLE "13:cjc029_2694"
    INDEX 01 00:12:36
  TRACK 15 AUDIO
    TITLE "0:"
    INDEX 01 00:13:71
  TRACK 16 AUDIO
    TITLE "14:cjc029_2695"
    INDEX 01 00:14:02
  TRACK 17 AUDIO
    TITLE "0:"
    INDEX 01 00:17:29
  TRACK 18 AUDIO
    TITLE "13:cjc029_2696"
    INDEX 01 00:18:11
  TRACK 19 AUDIO
    TITLE "0:"
    INDEX 01 00:19:18
  TRACK 20 AUDIO
    TITLE "14:cjc029_2697"
    INDEX 01 00:19:24
  TRACK 21 AUDIO
    TITLE "0:"
    INDEX 01 00:22:48
  TRACK 22 AUDIO
    TITLE "13:cjc029_2698"
    INDEX 01 00:23:30
  TRACK 23 AUDIO
    TITLE "0:"
    INDEX 01 00:24:33
  TRACK 24 AUDIO
    TITLE "14:cjc029_2699"
    INDEX 01 00:24:35
  TRACK 25 AUDIO
    TITLE "0:"
    INDEX 01 00:25:41
  TRACK 26 AUDIO
    TITLE "13:cjc029_2700"
    INDEX 01 00:26:22
  TRACK 27 AUDIO
    TITLE "0:"
    INDEX 01 00:28:02
  TRACK 28 AUDIO
    TITLE "14:cjc029_2701"
    INDEX 01 00:28:08
  TRACK 29 AUDIO
    TITLE "0:"
    INDEX 01 00:30:36
  TRACK 30 AUDIO
    TITLE "13:cjc029_2702"
    INDEX 01 00:31:16
  TRACK 31 AUDIO
    TITLE "0:"
    INDEX 01 00:32:35
  TRACK 32 AUDIO
    TITLE "14:cjc029_2703"
    INDEX 01 00:32:37
  TRACK 33 AUDIO
    TITLE "0:"
    INDEX 01 00:34:71
  TRACK 34 AUDIO
    TITLE "13:cjc029_2704"
    INDEX 01 00:35:53
  TRACK 35 AUDIO
    TITLE "0:"
    INDEX 01 00:37:05
  TRACK 36 AUDIO
    TITLE "14:cjc029_2705"
    INDEX 01 00:37:10
  TRACK 37 AUDIO
    TITLE "0:"
    INDEX 01 00:40:24
  TRACK 38 AUDIO
    TITLE "13:cjc029_2706"
    INDEX 01 00:41:08
  TRACK 39 AUDIO
    TITLE "0:"
    INDEX 01 00:42:27
  TRACK 40 AUDIO
    TITLE "14:cjc029_2707"
    INDEX 01 00:42:33
  TRACK 41 AUDIO
    TITLE "0:"
    INDEX 01 00:44:65
  TRACK 42 AUDIO
    TITLE "13:cjc029_2708"
    INDEX 01 00:45:47
  TRACK 43 AUDIO
    TITLE "0:"
    INDEX 01 00:46:74
  TRACK 44 AUDIO
    TITLE "14:cjc029_2709"
    INDEX 01 00:47:05
  TRACK 45 AUDIO
    TITLE "0:"
    INDEX 01 00:49:27
  TRACK 46 AUDIO
    TITLE "13:cjc029_2710"
    INDEX 01 00:50:09
  TRACK 47 AUDIO
    TITLE "0:"
    INDEX 01 00:51:15
  TRACK 48 AUDIO
    TITLE "14:cjc029_2711"
    INDEX 01 00:51:28
  TRACK 49 AUDIO
    TITLE "0:"
    INDEX 01 00:55:71
  TRACK 50 AUDIO
    TITLE "13:cjc029_2712"
    INDEX 01 00:56:53
  TRACK 51 AUDIO
    TITLE "0:"
    INDEX 01 00:57:60
  TRACK 52 AUDIO
    TITLE "14:cjc029_2713"
    INDEX 01 00:57:64
  TRACK 53 AUDIO
    TITLE "0:"
    INDEX 01 01:01:21
  TRACK 54 AUDIO
    TITLE "13:cjc029_2714"
    INDEX 01 01:02:06
  TRACK 55 AUDIO
    TITLE "0:"
    INDEX 01 01:03:47
  TRACK 56 AUDIO
    TITLE "14:cjc029_2715"
    INDEX 01 01:03:53
  TRACK 57 AUDIO
    TITLE "0:"
    INDEX 01 01:04:62
  TRACK 58 AUDIO
    TITLE "13:cjc029_2716"
    INDEX 01 01:05:50
  TRACK 59 AUDIO
    TITLE "0:"
    INDEX 01 01:07:17
  TRACK 60 AUDIO
    TITLE "14:cjc029_2717"
    INDEX 01 01:07:23
  TRACK 61 AUDIO
    TITLE "0:"
    INDEX 01 01:11:47
  TRACK 62 AUDIO
    TITLE "13:cjc029_2718"
    INDEX 01 01:12:28
  TRACK 63 AUDIO
    TITLE "0:"
    INDEX 01 01:13:63
  TRACK 64 AUDIO
    TITLE "14:cjc029_2719"
    INDEX 01 01:13:65
  TRACK 65 AUDIO
    TITLE "0:"
    INDEX 01 01:15:11
  TRACK 66 AUDIO
    TITLE "13:cjc029_2720"
    INDEX 01 01:15:66
  TRACK 67 AUDIO
    TITLE "0:"
    INDEX 01 01:17:24
  TRACK 68 AUDIO
    TITLE "14:cjc029_2721"
    INDEX 01 01:17:28
  TRACK 69 AUDIO
    TITLE "0:"
    INDEX 01 01:20:14
  TRACK 70 AUDIO
    TITLE "13:cjc029_2722"
    INDEX 01 01:21:00
  TRACK 71 AUDIO
    TITLE "0:"
    INDEX 01 01:22:17
  TRACK 72 AUDIO
    TITLE "14:cjc029_2723"
    INDEX 01 01:22:23
  TRACK 73 AUDIO
    TITLE "0:"
    INDEX 01 01:24:36
